# Blender 3.5.1
# www.blender.org
o I-beam.001
v -0.250000 2.500000 0.242500
v -0.242500 2.500000 0.250000
v -0.242500 2.500000 -0.250000
v -0.250000 2.500000 -0.242500
v -0.242500 2.500000 0.206083
v -0.250000 2.500000 0.213583
v -0.051302 2.500000 0.198583
v -0.058802 2.500000 0.206083
v -0.058802 2.500000 -0.206083
v -0.051302 2.500000 -0.198583
v -0.250000 2.500000 -0.213583
v -0.242500 2.500000 -0.206083
v 0.242500 2.500000 0.250000
v 0.250000 2.500000 0.242500
v 0.250000 2.500000 -0.242500
v 0.242500 2.500000 -0.250000
v 0.250000 2.500000 0.213583
v 0.242500 2.500000 0.206083
v 0.058802 2.500000 0.206083
v 0.051302 2.500000 0.198583
v 0.051302 2.500000 -0.198583
v 0.058802 2.500000 -0.206083
v 0.242500 2.500000 -0.206083
v 0.250000 2.500000 -0.213583
v -0.242500 -2.500000 0.250000
v -0.250000 -2.500000 0.242500
v -0.250000 -2.500000 -0.242500
v -0.242500 -2.500000 -0.250000
v -0.250000 -2.500000 0.213583
v -0.242500 -2.500000 0.206083
v -0.058802 -2.500000 0.206083
v -0.051302 -2.500000 0.198583
v -0.051302 -2.500000 -0.198583
v -0.058802 -2.500000 -0.206083
v -0.242500 -2.500000 -0.206083
v -0.250000 -2.500000 -0.213583
v 0.250000 -2.500000 0.242500
v 0.242500 -2.500000 0.250000
v 0.242500 -2.500000 -0.250000
v 0.250000 -2.500000 -0.242500
v 0.242500 -2.500000 0.206083
v 0.250000 -2.500000 0.213583
v 0.051302 -2.500000 0.198583
v 0.058802 -2.500000 0.206083
v 0.058802 -2.500000 -0.206083
v 0.051302 -2.500000 -0.198583
v 0.250000 -2.500000 -0.213583
v 0.242500 -2.500000 -0.206083
vn -0.7071 -0.0000 0.7071
vn -1.0000 -0.0000 -0.0000
vn 0.7071 -0.0000 0.7071
vn -0.0000 -0.0000 -1.0000
vn -0.7071 -0.0000 -0.7071
vn -0.0000 -0.0000 1.0000
vn 0.7071 -0.0000 -0.7071
vn 1.0000 -0.0000 -0.0000
vn -0.0000 -1.0000 -0.0000
vn -0.0000 1.0000 -0.0000
vt 0.108909 0.009605
vt 0.335395 0.194298
vt 0.108489 0.009605
vt 0.335692 0.194595
vt 0.315896 0.194595
vt 0.035006 0.009605
vt 0.034586 0.009605
vt 0.316193 0.194298
vt 0.110473 0.009605
vt 0.333953 0.194595
vt 0.110053 0.009605
vt 0.334250 0.194298
vt 0.118166 0.009605
vt 0.333656 0.202165
vt 0.009605 0.009605
vt 0.117746 0.009605
vt 0.333953 0.201868
vt 0.025749 0.009605
vt 0.317635 0.201868
vt 0.317932 0.202165
vt 0.025329 0.009605
vt 0.033441 0.009605
vt 0.317338 0.194298
vt 0.033021 0.009605
vt 0.317635 0.194595
vt 0.089287 0.009605
vt 0.335692 0.213797
vt 0.335395 0.214094
vt 0.088867 0.009605
vt 0.316193 0.214094
vt 0.054628 0.009605
vt 0.315896 0.213797
vt 0.054208 0.009605
vt 0.334250 0.214094
vt 0.087722 0.009605
vt 0.087302 0.009605
vt 0.333953 0.213797
vt 0.080029 0.009605
vt 0.333953 0.206524
vt 0.079610 0.009605
vt 0.333656 0.206227
vt 0.063885 0.009605
vt 0.317932 0.206227
vt 0.063465 0.009605
vt 0.317635 0.206524
vt 0.056193 0.009605
vt 0.317635 0.213797
vt 0.317338 0.214094
vt 0.055773 0.009605
vt 0.108489 0.207560
vt 0.368185 0.071048
vt 0.108909 0.207560
vt 0.368482 0.070751
vt 0.387684 0.070751
vt 0.034586 0.207560
vt 0.387981 0.071048
vt 0.035006 0.207560
vt 0.110053 0.207560
vt 0.369627 0.070751
vt 0.110473 0.207560
vt 0.369924 0.071048
vt 0.117746 0.207560
vt 0.369924 0.078320
vt 0.118166 0.207560
vt 0.370221 0.078617
vt 0.009605 0.207560
vt 0.385945 0.078617
vt 0.025329 0.207560
vt 0.386242 0.078320
vt 0.025749 0.207560
vt 0.386242 0.071048
vt 0.033021 0.207560
vt 0.386539 0.070751
vt 0.033441 0.207560
vt 0.368482 0.090546
vt 0.088867 0.207560
vt 0.368185 0.090249
vt 0.089287 0.207560
vt 0.387981 0.090249
vt 0.054208 0.207560
vt 0.387684 0.090546
vt 0.054628 0.207560
vt 0.087302 0.207560
vt 0.369924 0.090249
vt 0.369627 0.090546
vt 0.087722 0.207560
vt 0.370221 0.082679
vt 0.079610 0.207560
vt 0.369924 0.082976
vt 0.080029 0.207560
vt 0.386242 0.082976
vt 0.063465 0.207560
vt 0.063885 0.207560
vt 0.385945 0.082679
vt 0.386539 0.090546
vt 0.055773 0.207560
vt 0.386242 0.090249
vt 0.056193 0.207560
s 0
f 2/3/1 1/1/1 26/52/1 25/50/1
f 36/74/2 11/22/2 4/7/2 27/55/2
f 22/44/3 21/42/3 46/93/3 45/92/3
f 30/60/4 5/9/4 8/16/4 31/62/4
f 24/49/3 23/46/3 48/98/3 47/96/3
f 26/52/2 1/1/2 6/11/2 29/58/2
f 8/16/5 7/13/5 32/64/5 31/62/5
f 2/3/6 25/50/6 38/78/6 13/26/6
f 16/33/7 15/31/7 40/82/7 39/80/7
f 46/93/8 21/42/8 20/40/8 43/88/8
f 6/11/5 5/9/5 30/60/5 29/58/5
f 34/70/6 9/18/6 12/24/6 35/72/6
f 18/36/7 17/35/7 42/86/7 41/83/7
f 44/90/4 19/38/4 18/36/4 41/83/4
f 44/89/9 41/84/9 42/85/9 37/75/9 38/77/9 25/51/9 26/53/9 29/59/9 30/61/9 31/63/9 32/65/9 33/67/9 34/69/9 35/71/9 36/73/9 27/54/9 28/56/9 39/79/9 40/81/9 47/95/9 48/97/9 45/91/9 46/94/9 43/87/9
f 14/29/3 13/26/3 38/78/3 37/76/3
f 12/24/1 11/22/1 36/74/1 35/72/1
f 20/40/7 19/38/7 44/90/7 43/88/7
f 10/21/1 9/18/1 34/70/1 33/68/1
f 4/7/5 3/6/5 28/57/5 27/55/5
f 48/98/6 23/46/6 22/44/6 45/92/6
f 11/23/10 12/25/10 9/19/10 10/20/10 7/14/10 8/17/10 5/10/10 6/12/10 1/2/10 2/4/10 13/27/10 14/28/10 17/34/10 18/37/10 19/39/10 20/41/10 21/43/10 22/45/10 23/47/10 24/48/10 15/30/10 16/32/10 3/5/10 4/8/10
f 33/68/2 32/66/2 7/15/2 10/21/2
f 42/86/8 17/35/8 14/29/8 37/76/8
f 28/57/4 3/6/4 16/33/4 39/80/4
f 40/82/8 15/31/8 24/49/8 47/96/8
