# Blender 3.5.1
# www.blender.org
o boxes.004
v -1.000000 0.000000 1.000000
v -1.000000 2.000002 1.000000
v -1.000000 -0.000000 -1.000000
v 1.000000 0.000000 1.000000
v 1.000000 -0.000000 -1.000000
v 1.000000 2.000002 1.000000
v 1.000000 2.000002 -1.000000
v -1.000000 2.000002 -1.000000
vn -0.0000 -0.0000 1.0000
vn -1.0000 -0.0000 -0.0000
vn -0.0000 -1.0000 -0.0000
vn 1.0000 -0.0000 -0.0000
vn -0.0000 1.0000 -0.0000
vn -0.0000 -0.0000 -1.0000
vt 0.465265 0.993988
vt 0.465265 0.716012
vt 0.395770 0.924493
vt 0.534758 0.993988
vt 0.534758 0.716012
vt 0.604252 0.924493
vt 0.395770 0.855000
vt 0.465265 0.785506
vt 0.465265 0.924493
vt 0.465265 0.855000
vt 0.534758 0.924493
vt 0.534758 0.855000
vt 0.604252 0.855000
vt 0.534758 0.785506
s 0
f 4/9/1 6/11/1 2/4/1 1/1/1
f 2/5/2 8/14/2 3/8/2 1/2/2
f 5/10/3 4/9/3 1/3/3 3/7/3
f 7/12/4 6/11/4 4/9/4 5/10/4
f 6/11/5 7/12/5 8/13/5 2/6/5
f 7/12/6 5/10/6 3/8/6 8/14/6
