# Blender 3.5.1
# www.blender.org
o boxes.003
v -1.000000 0.000000 1.496513
v -1.000000 2.000002 1.496513
v -1.000000 -0.000000 -1.496514
v 1.000000 0.000000 1.496513
v 1.000000 -0.000000 -1.496514
v 1.000000 2.000002 1.496513
v 1.000000 2.000002 -1.496514
v -1.000000 2.000002 -1.496514
vn -0.0000 -0.0000 1.0000
vn -1.0000 -0.0000 -0.0000
vn -0.0000 -1.0000 -0.0000
vn 1.0000 -0.0000 -0.0000
vn -0.0000 1.0000 -0.0000
vn -0.0000 -0.0000 -1.0000
vt 0.072515 0.948193
vt 0.072515 0.601209
vt 0.003021 0.878699
vt 0.142008 0.948193
vt 0.142008 0.601209
vt 0.211502 0.878699
vt 0.003021 0.774701
vt 0.072515 0.705208
vt 0.072515 0.878699
vt 0.072515 0.774701
vt 0.142008 0.878699
vt 0.142008 0.774701
vt 0.211502 0.774701
vt 0.142008 0.705208
s 0
f 4/9/1 6/11/1 2/4/1 1/1/1
f 2/5/2 8/14/2 3/8/2 1/2/2
f 5/10/3 4/9/3 1/3/3 3/7/3
f 7/12/4 6/11/4 4/9/4 5/10/4
f 6/11/5 7/12/5 8/13/5 2/6/5
f 7/12/6 5/10/6 3/8/6 8/14/6
