# Blender 3.5.1
# www.blender.org
o boxes.001
v 2.010818 3.291508 3.248241
v 1.320343 3.976800 2.519331
v -2.010818 3.291508 3.248241
v 2.010818 3.291508 -3.267361
v 2.010818 0.000000 3.248241
v -2.010818 0.000000 3.248241
v 2.010818 -0.000000 -3.248242
v -2.010818 -0.000000 -3.248242
v -2.010818 3.291508 -3.267361
v -1.288170 3.976800 -2.533764
v 1.320343 3.976800 -2.533764
v -1.288170 3.976800 2.519331
vn 0.7044 0.7098 -0.0000
vn -0.0000 0.7286 0.6850
vn -0.0000 -0.0000 1.0000
vn 1.0000 -0.0000 -0.0000
vn -0.0000 -0.0058 -1.0000
vn -1.0000 -0.0000 -0.0000
vn -0.0000 0.7308 -0.6826
vn -0.6881 0.7256 -0.0000
vn -0.0000 1.0000 -0.0000
vt 0.839586 0.561500
vt 0.881874 0.604061
vt 0.839586 0.604061
vt 0.716215 0.561500
vt 0.673283 0.604061
vt 0.881874 0.813297
vt 0.839586 0.855955
vt 0.839586 0.447130
vt 0.996245 0.604061
vt 0.716215 0.447130
vt 0.558912 0.604061
vt 0.996245 0.813297
vt 0.839586 0.970327
vt 0.716215 0.970327
vt 0.558912 0.813297
vt 0.716215 0.855955
vt 0.673283 0.813297
vt 0.716215 0.813297
vt 0.839586 0.813297
vt 0.716215 0.604061
s 0
f 1/2/1 4/6/1 11/19/1 2/3/1
f 1/1/2 2/3/2 12/20/2 3/4/2
f 5/8/3 1/1/3 3/4/3 6/10/3
f 4/6/4 1/2/4 5/9/4 7/12/4
f 4/7/5 7/13/5 8/14/5 9/16/5
f 3/5/6 9/17/6 8/15/6 6/11/6
f 11/19/7 4/7/7 9/16/7 10/18/7
f 12/20/8 10/18/8 9/17/8 3/5/8
f 2/3/9 11/19/9 10/18/9 12/20/9
