# Blender 3.5.1
# www.blender.org
o boxes
v -5.250000 5.319932 3.249999
v -4.071892 6.427534 2.134022
v -4.071892 6.427534 -2.082016
v -5.250000 5.319932 -3.250000
v 4.095215 6.427534 -2.082016
v 5.280899 5.319932 -3.250000
v 4.095215 6.427534 2.134022
v 5.280899 5.319932 3.249999
v 5.250000 0.000000 3.249999
v -5.250000 0.000000 3.249999
v 5.250000 -0.000000 -3.249999
v -5.250000 -0.000000 -3.249999
vn -0.6850 0.7286 -0.0000
vn -0.0000 0.7256 -0.6881
vn 0.6826 0.7308 -0.0000
vn -0.0000 0.7098 0.7044
vn -0.0000 1.0000 -0.0000
vn -0.0000 -0.0000 1.0000
vn 1.0000 -0.0058 -0.0000
vn -0.0000 -0.0000 -1.0000
vn -1.0000 -0.0000 -0.0000
vt 0.525011 0.256662
vt 0.456664 0.187872
vt 0.456664 0.256662
vt 0.257262 0.256662
vt 0.187874 0.256662
vt 0.257262 0.187872
vt 0.257262 0.594842
vt 0.257262 0.663788
vt 0.187874 0.594842
vt 0.456664 0.594842
vt 0.525011 0.594842
vt 0.456664 0.663788
vt 0.709864 0.594842
vt 0.456664 0.848643
vt 0.709864 0.256662
vt 0.456664 0.003021
vt 0.257262 0.848643
vt 0.003021 0.594842
vt 0.003021 0.256662
vt 0.257262 0.003021
s 0
f 2/3/1 3/4/1 4/6/1 1/2/1
f 5/7/2 6/9/2 4/5/2 3/4/2
f 8/12/3 6/8/3 5/7/3 7/10/3
f 8/11/4 7/10/4 2/3/4 1/1/4
f 7/10/5 5/7/5 3/4/5 2/3/5
f 9/13/6 8/11/6 1/1/6 10/15/6
f 6/8/7 8/12/7 9/14/7 11/17/7
f 6/9/8 11/18/8 12/19/8 4/5/8
f 1/2/9 4/6/9 12/20/9 10/16/9
